<?xml version="1.0" standalone="no"?>
<!DOCTYPE svg PUBLIC "-//W3C//DTD SVG 20010904//EN"
 "http://www.w3.org/TR/2001/REC-SVG-20010904/DTD/svg10.dtd">
<svg version="1.0" xmlns="http://www.w3.org/2000/svg"
 width="1235.000000pt" height="1244.000000pt" viewBox="0 0 1235.000000 1244.000000"
 preserveAspectRatio="xMidYMid meet">

<g transform="translate(0.000000,1244.000000) scale(0.100000,-0.100000)"
fill="#000000" stroke="none">
<path d="M5962 10991 c-73 -176 -132 -324 -132 -329 0 -8 629 -27 636 -19 5 5
-235 640 -246 650 -4 5 -34 11 -67 14 l-59 5 -132 -321z m267 -69 c34 -89 61
-165 61 -167 0 -3 -63 -5 -140 -5 -77 0 -140 4 -140 8 0 4 29 79 63 167 35 88
67 169 71 180 l8 20 8 -20 c4 -11 35 -93 69 -183z"/>
<path d="M6590 11273 c0 -5 34 -89 75 -186 l75 -177 -20 -127 c-11 -71 -23
-140 -26 -155 -6 -29 0 -32 77 -43 l45 -7 23 152 23 151 135 157 c149 174 145
161 43 175 l-45 6 -80 -99 c-44 -54 -83 -99 -86 -99 -4 -1 -27 52 -51 116 -49
127 -44 123 -141 137 -26 4 -47 3 -47 -1z"/>
<path d="M4790 11174 c-138 -50 -220 -174 -220 -332 0 -64 5 -87 29 -139 36
-75 94 -133 169 -170 49 -24 69 -28 142 -28 102 1 174 29 239 94 66 66 94 131
99 231 5 104 -18 174 -79 244 -61 69 -150 109 -252 113 -58 2 -95 -2 -127 -13z
m221 -137 c64 -34 109 -111 109 -189 0 -123 -96 -218 -219 -218 -65 0 -153 57
-186 120 -53 102 -5 244 99 291 59 27 142 25 197 -4z"/>
<path d="M7216 11124 c-4 -19 -10 -42 -13 -49 -3 -10 12 -19 56 -31 37 -11 61
-23 61 -31 0 -7 -32 -126 -71 -264 -39 -138 -69 -252 -67 -254 12 -11 113 -32
118 -25 3 5 36 120 74 257 38 136 72 251 75 255 4 4 28 1 55 -7 27 -8 55 -15
61 -15 14 0 41 87 31 97 -8 8 -335 102 -357 103 -11 0 -19 -12 -23 -36z"/>
<path d="M4293 11007 c-29 -11 -53 -23 -53 -27 0 -8 218 -602 223 -607 7 -6
99 30 103 41 3 9 -209 603 -218 611 -2 2 -27 -6 -55 -18z"/>
<path d="M7645 10699 c-60 -166 -111 -304 -113 -309 -1 -4 23 -16 53 -28 l56
-20 11 26 c33 87 208 567 210 579 2 9 -15 22 -47 34 -27 10 -52 19 -55 19 -3
0 -54 -136 -115 -301z"/>
<path d="M7913 10588 l-141 -293 52 -27 c28 -15 53 -27 56 -28 3 0 32 54 65
119 32 66 62 118 66 116 3 -3 9 -19 13 -37 3 -18 20 -93 37 -166 l31 -133 69
-34 c38 -20 69 -32 69 -28 0 5 -23 99 -52 211 -30 119 -48 206 -42 211 5 4 91
43 192 87 l182 79 -64 32 -65 33 -152 -70 c-84 -39 -156 -70 -161 -70 -4 0 17
49 47 110 30 60 55 114 55 120 0 9 -91 60 -108 60 -4 0 -71 -132 -149 -292z"/>
<path d="M3877 10844 c-47 -24 -48 -26 -43 -62 14 -96 47 -393 44 -401 -1 -5
-77 58 -168 140 -91 82 -167 149 -170 149 -3 0 -28 -14 -57 -30 l-52 -30 105
-314 105 -315 53 26 54 26 -73 218 -73 219 180 -161 c167 -151 181 -161 204
-150 30 13 30 12 -1 275 -13 116 -23 211 -22 212 1 2 59 -74 127 -167 68 -94
130 -175 136 -180 9 -7 28 -2 63 15 l50 26 -196 265 c-108 146 -201 265 -207
265 -6 -1 -33 -12 -59 -26z"/>
<path d="M8493 10287 l-182 -271 49 -33 c27 -18 53 -33 58 -33 5 0 42 49 82
110 40 60 75 108 79 106 3 -2 52 -35 108 -73 l102 -69 -75 -109 c-41 -60 -74
-112 -74 -116 0 -7 92 -69 103 -69 6 0 355 513 363 533 3 10 -85 77 -101 77
-2 0 -37 -48 -76 -107 -40 -60 -73 -109 -75 -111 -1 -2 -52 30 -112 70 l-110
74 74 109 c41 60 74 112 74 116 0 7 -92 69 -101 69 -2 -1 -86 -123 -186 -273z"/>
<path d="M3131 10419 l-52 -40 20 -27 c10 -15 46 -62 80 -106 33 -43 59 -82
56 -86 -3 -4 -49 -42 -104 -84 l-99 -76 -82 110 -82 110 -45 -32 c-24 -18 -47
-36 -49 -40 -4 -6 382 -528 390 -528 1 0 26 17 54 39 l52 38 -80 104 c-44 57
-80 107 -80 111 0 8 200 162 204 156 2 -1 37 -49 80 -105 42 -57 79 -103 83
-103 3 0 27 16 54 36 33 24 47 40 41 48 -5 6 -63 83 -129 171 -66 88 -152 202
-191 252 l-70 93 -51 -41z"/>
<path d="M9246 10123 c-3 -15 -17 -98 -32 -183 -14 -85 -29 -158 -33 -162 -3
-4 -84 -31 -178 -60 -95 -29 -173 -57 -173 -61 -1 -5 61 -63 137 -130 190
-167 170 -153 194 -131 50 45 48 52 -37 130 l-79 72 125 39 125 39 26 122 c14
67 27 124 30 126 3 3 38 -24 79 -59 41 -36 78 -65 81 -65 4 0 19 16 34 36 27
35 27 36 9 53 -34 32 -269 236 -286 249 -14 11 -17 9 -22 -15z"/>
<path d="M6380 10011 c84 -91 161 -184 156 -188 -1 -2 -43 15 -92 36 -49 21
-90 37 -92 36 -2 -2 15 -40 38 -84 73 -146 82 -176 66 -216 -8 -19 -43 -67
-78 -107 -129 -149 -216 -292 -282 -465 -19 -51 -51 -115 -70 -142 -38 -56
-64 -129 -97 -270 -24 -104 -18 -150 21 -186 20 -18 23 -18 93 -2 84 20 136
21 226 6 53 -10 73 -19 98 -44 43 -43 42 -73 0 -305 -26 -137 -36 -176 -49
-178 -11 -2 -32 24 -68 83 -63 104 -95 144 -128 156 -36 14 -69 -12 -100 -79
-22 -49 -27 -54 -36 -38 -65 111 -133 186 -170 186 -6 0 -42 -68 -81 -150 -38
-83 -81 -164 -95 -181 -35 -42 -128 -59 -307 -58 -152 0 -191 -8 -267 -61 -36
-24 -97 -90 -84 -90 2 0 32 9 68 20 86 26 169 25 244 -4 33 -12 56 -25 50 -28
-5 -2 -46 -15 -91 -28 -46 -12 -83 -26 -83 -29 0 -3 34 -48 75 -100 41 -51 75
-99 75 -105 0 -6 -11 -57 -25 -114 -14 -57 -25 -110 -25 -119 0 -25 201 -14
256 15 87 44 164 157 232 338 63 168 105 254 138 287 64 64 101 15 152 -203
17 -71 40 -319 48 -505 7 -176 -9 -442 -28 -478 -5 -10 -24 -31 -41 -47 l-32
-28 -12 28 c-22 53 -54 65 -188 68 l-120 3 54 -31 c110 -65 180 -161 181 -247
l0 -43 -45 0 c-48 0 -95 -19 -131 -52 l-22 -20 -22 76 c-13 42 -26 76 -30 76
-15 0 -88 -60 -141 -117 -160 -168 -272 -444 -324 -798 -16 -110 -31 -393 -19
-365 26 62 60 120 87 148 30 32 95 72 116 72 6 0 10 -42 10 -104 0 -76 9 -145
32 -257 47 -234 33 -341 -56 -440 -63 -70 -45 -114 112 -275 92 -95 116 -115
166 -133 75 -27 178 -28 315 -1 56 11 108 20 114 20 6 0 52 -40 102 -88 175
-171 274 -251 360 -291 160 -76 329 -105 589 -99 165 3 174 4 230 31 67 34 99
79 117 172 17 85 42 136 91 190 48 52 88 75 191 110 116 39 174 80 323 230
166 167 170 169 332 159 105 -7 110 -6 136 17 22 19 30 38 38 89 18 108 19
112 49 141 55 56 140 32 140 -39 0 -43 -37 -229 -60 -305 -23 -74 -143 -280
-315 -537 -113 -171 -176 -257 -391 -540 -44 -58 -96 -135 -116 -171 -41 -72
-88 -203 -88 -243 l0 -26 158 0 157 1 222 252 c122 139 292 328 379 422 194
210 416 484 626 775 167 231 219 337 220 450 2 190 -151 310 -464 364 -48 8
-96 20 -108 26 -11 6 -70 58 -132 116 -152 145 -205 172 -413 218 -125 27
-532 86 -594 86 -74 0 -150 -25 -241 -80 -79 -48 -122 -52 -146 -15 -23 36
-37 299 -24 474 11 142 58 437 115 716 68 337 89 394 183 497 74 81 93 109
135 194 44 88 64 155 77 262 22 177 -25 427 -123 656 -71 166 -128 258 -242
391 -117 136 -140 178 -165 301 -42 201 -94 336 -174 448 -53 75 -254 270
-357 348 -135 102 -258 157 -464 209 -44 11 -89 23 -100 26 -12 3 11 -27 55
-76z m-177 -3543 c41 -16 57 -55 57 -142 l0 -75 -49 30 c-35 22 -71 34 -125
41 -68 10 -76 13 -76 33 0 32 56 104 93 120 32 14 48 13 100 -7z m-69 -722
c61 -19 109 -56 132 -103 15 -33 18 -60 15 -198 -2 -132 -7 -178 -28 -262 -14
-56 -31 -110 -38 -120 -12 -16 -14 -16 -38 0 -14 9 -64 61 -111 116 -48 54
-93 102 -102 105 -31 12 -63 5 -93 -19 -56 -48 -66 -123 -47 -365 9 -105 23
-206 32 -233 22 -66 16 -170 -12 -198 -27 -27 -59 -14 -120 46 -66 67 -85 116
-88 233 l-2 97 -47 70 c-66 99 -89 170 -95 286 -5 114 7 180 50 266 34 69 111
149 176 182 61 31 302 110 338 111 17 0 52 -6 78 -14z m275 -748 c-35 -89 -38
-108 -32 -171 4 -50 0 -78 -22 -150 -27 -87 -28 -94 -9 -194 8 -43 -19 -46
-40 -5 -40 78 -55 352 -24 452 23 74 69 117 125 119 l23 1 -21 -52z m148 -464
c3 -9 -4 -37 -17 -63 -12 -25 -22 -48 -22 -51 1 -5 37 -15 94 -24 38 -7 98
-56 98 -81 0 -34 -240 -29 -283 5 -30 24 -28 104 2 154 37 60 114 96 128 60z"/>
<path d="M2492 9893 l-143 -136 37 -38 37 -38 51 44 51 45 191 -198 192 -197
41 40 c23 21 41 44 41 50 0 6 -16 27 -36 46 -20 18 -104 105 -187 192 l-150
158 46 47 47 48 -38 37 -37 37 -143 -137z"/>
<path d="M2121 9499 c-73 -88 -132 -162 -130 -164 3 -2 83 -15 179 -29 96 -15
180 -28 187 -30 6 -3 37 -84 69 -180 32 -97 61 -176 65 -176 5 0 228 262 258
304 13 18 12 22 -19 48 -19 15 -38 28 -42 28 -4 0 -38 -36 -74 -80 l-68 -81
-43 122 c-23 67 -44 124 -46 126 -3 2 -59 13 -126 25 -66 12 -121 26 -121 31
0 5 27 40 60 79 33 38 60 73 60 77 0 8 -64 61 -72 61 -2 0 -63 -72 -137 -161z"/>
<path d="M1853 9153 c-18 -26 -30 -50 -25 -54 24 -21 534 -371 536 -368 1 2
17 25 34 50 l31 46 -262 183 c-144 100 -266 184 -272 186 -5 2 -25 -17 -42
-43z"/>
<path d="M9830 9067 c-179 -45 -327 -82 -329 -83 -1 -2 14 -27 35 -57 l38 -54
70 18 c39 10 71 17 71 16 1 -1 34 -48 74 -105 l72 -102 -35 -59 c-20 -32 -36
-62 -36 -67 0 -11 63 -104 71 -104 3 0 93 130 199 290 l193 289 -33 51 c-18
29 -39 50 -49 49 -9 -1 -162 -37 -341 -82z m250 -62 c0 -6 -140 -204 -148
-209 -10 -6 -106 134 -97 142 5 5 216 69 238 71 4 1 7 -1 7 -4z"/>
<path d="M1647 8843 c-160 -287 -187 -336 -187 -343 0 -12 560 -321 571 -315
5 4 20 28 33 54 l24 47 -239 133 -239 133 17 31 c9 18 38 72 65 120 l50 88 41
-24 c148 -85 427 -237 436 -237 6 0 22 22 35 48 l24 48 -282 157 c-156 86
-286 157 -289 157 -3 0 -30 -44 -60 -97z"/>
<path d="M10397 8724 l-47 -24 30 -59 30 -59 -63 -34 c-34 -19 -142 -77 -239
-129 -98 -51 -178 -97 -178 -102 0 -4 13 -30 28 -57 l28 -48 242 128 243 128
30 -59 29 -59 50 25 50 25 -57 108 c-31 59 -73 137 -93 173 l-35 67 -48 -24z"/>
<path d="M4700 8512 c-34 -12 -84 -60 -182 -173 -56 -65 -104 -119 -105 -119
-10 0 -33 74 -33 106 0 36 -1 37 -19 20 -11 -10 -30 -41 -42 -69 -23 -51 -29
-135 -17 -257 3 -32 1 -35 -26 -38 -16 -2 -49 2 -73 9 -24 6 -46 9 -49 6 -12
-12 57 -134 106 -189 56 -63 80 -111 80 -159 0 -18 -19 -86 -41 -151 -33 -97
-39 -124 -31 -143 14 -30 67 -90 102 -115 l28 -20 73 49 c41 26 84 60 97 74
13 14 42 78 64 144 54 156 62 272 28 414 -28 118 -23 182 25 344 36 119 56
258 39 267 -5 3 -16 3 -24 0z m-152 -689 c78 -37 101 -95 66 -169 -22 -46 -43
-62 -55 -43 -5 8 -9 28 -9 44 0 58 -22 108 -68 157 -46 49 -46 49 -17 43 17
-4 54 -18 83 -32z"/>
<path d="M10608 8292 c-21 -10 -38 -20 -38 -24 0 -4 11 -32 25 -63 l24 -56
-22 -8 c-88 -34 -473 -195 -478 -200 -10 -9 32 -111 46 -111 7 0 121 45 254
100 132 55 243 100 245 100 2 0 14 -26 27 -57 12 -32 23 -59 24 -61 2 -1 25 8
52 20 l50 23 -73 175 c-40 96 -79 176 -86 177 -7 1 -30 -6 -50 -15z"/>
<path d="M1351 8278 c-5 -13 -33 -84 -63 -159 l-55 -136 304 -123 c167 -67
305 -121 308 -119 6 7 126 311 123 314 -2 2 -26 12 -53 23 l-51 20 -38 -98
-38 -99 -52 21 c-28 11 -63 25 -78 30 l-27 10 19 49 c11 27 29 71 40 99 l19
49 -46 21 c-26 11 -50 17 -54 13 -4 -5 -24 -49 -44 -100 l-36 -91 -74 30 -74
30 20 49 c10 27 28 72 39 100 12 29 19 53 18 54 -6 6 -81 35 -89 35 -5 0 -13
-10 -18 -22z"/>
<path d="M3898 7794 c-21 -24 -38 -68 -38 -98 0 -13 -7 -29 -15 -36 -8 -7 -15
-21 -15 -31 0 -26 28 -24 108 7 49 19 80 40 114 76 l47 50 -47 21 c-68 29
-133 34 -154 11z"/>
<path d="M10545 7693 c-159 -52 -293 -98 -298 -102 -6 -6 18 -96 28 -109 5 -6
625 199 625 207 0 4 -7 28 -16 54 -11 32 -21 47 -32 46 -10 0 -147 -44 -307
-96z"/>
<path d="M1136 7716 c-8 -33 -14 -61 -13 -62 1 -1 103 -26 226 -56 l224 -55
-54 -21 c-150 -57 -474 -183 -477 -186 -6 -6 -31 -110 -28 -114 7 -6 629 -162
633 -158 6 6 33 110 29 113 -1 2 -102 28 -224 60 l-221 56 177 67 c97 37 216
83 264 101 l87 33 15 60 c8 33 14 61 13 61 -1 1 -145 37 -319 81 l-317 80 -15
-60z"/>
<path d="M4125 7449 c3 -41 10 -134 16 -207 17 -224 43 -315 95 -328 41 -10
60 20 75 122 16 108 6 149 -58 250 -25 39 -59 107 -77 150 -42 105 -59 109
-51 13z"/>
<path d="M10641 7418 c-173 -37 -316 -70 -319 -72 -2 -3 2 -30 9 -60 9 -41 17
-56 29 -56 10 0 68 11 130 25 62 14 115 24 117 21 3 -2 -44 -66 -105 -141
l-109 -136 15 -74 c8 -41 18 -75 21 -74 3 0 55 64 115 143 59 79 118 156 130
171 l23 28 180 -96 c100 -54 183 -97 185 -97 3 0 -2 31 -10 68 l-15 68 -153
80 c-84 43 -150 82 -146 85 4 3 54 16 112 28 58 12 112 24 121 27 15 4 15 11
4 65 -7 33 -14 61 -16 63 -2 2 -145 -28 -318 -66z"/>
<path d="M3815 7404 c-22 -7 -41 -14 -43 -14 -1 0 1 -12 4 -27 4 -16 23 -45
42 -65 l36 -38 32 31 c17 17 39 48 47 70 17 43 22 38 -55 53 -13 3 -41 -2 -63
-10z"/>
<path d="M3806 7178 c48 -54 259 -228 278 -228 14 0 -2 60 -29 107 -29 48 -83
84 -182 120 -79 29 -91 29 -67 1z"/>
<path d="M1275 6877 c-176 -49 -322 -92 -325 -94 -2 -2 -7 -31 -10 -65 l-6
-60 313 -156 c171 -86 314 -154 316 -152 2 3 7 32 10 66 l6 60 -65 32 -66 33
8 77 c4 42 10 100 13 127 l6 50 62 20 c34 11 65 24 69 28 5 4 11 35 14 68 5
49 3 59 -10 58 -8 0 -159 -42 -335 -92z m81 -194 c-3 -48 -8 -88 -10 -90 -5
-5 -235 101 -236 108 0 6 213 65 244 68 5 1 6 -36 2 -86z"/>
<path d="M4783 6868 c48 -126 68 -243 68 -407 l1 -126 30 75 c40 100 61 204
53 260 -12 81 -68 160 -144 205 -11 6 -13 4 -8 -7z"/>
<path d="M5595 6861 c-46 -29 -92 -82 -114 -131 -19 -45 -38 -150 -27 -150 4
0 35 13 70 29 86 39 98 59 104 176 2 52 3 95 1 95 -2 0 -17 -9 -34 -19z"/>
<path d="M10732 6775 c-162 -13 -294 -25 -296 -27 -1 -1 0 -32 2 -67 l4 -63
61 6 c34 3 96 8 138 12 l76 6 6 -93 c4 -50 7 -109 7 -130 l0 -37 -87 -7 c-49
-3 -109 -8 -135 -11 l-48 -6 7 -61 c3 -34 7 -63 8 -64 3 -4 647 45 651 50 2 2
1 32 -2 66 l-7 63 -71 -7 c-39 -3 -99 -8 -132 -11 -74 -7 -70 -15 -79 147 l-7
116 137 8 137 7 -6 45 c-3 25 -6 54 -6 64 0 23 24 23 -358 -6z"/>
<path d="M1211 6272 l-304 -15 7 -166 c4 -91 9 -208 13 -259 l6 -94 61 6 c34
3 182 11 330 18 l268 12 -6 60 c-3 32 -7 61 -9 62 -2 2 -124 -3 -272 -11 -148
-8 -270 -13 -271 -12 -1 1 -5 61 -9 134 l-7 132 33 5 c19 3 97 8 174 11 77 3
186 8 243 11 l102 7 0 27 c0 60 -11 90 -34 88 -11 0 -158 -8 -325 -16z"/>
<path d="M10466 6118 c-3 -7 -7 -78 -11 -158 -3 -80 -8 -171 -12 -202 l-6 -58
50 0 c49 0 51 1 57 31 3 17 6 65 6 106 0 89 -7 90 127 -4 l96 -66 113 56 c63
32 117 57 120 57 4 0 4 -47 0 -105 l-7 -105 49 0 49 0 6 88 c14 193 20 332 14
332 -4 0 -78 -38 -165 -85 -87 -47 -163 -85 -169 -85 -5 0 -28 13 -49 28 -173
124 -265 182 -268 170z"/>
<path d="M4944 5944 c-79 -48 -94 -62 -116 -112 -23 -51 -18 -94 16 -161 l23
-45 12 37 c7 20 16 37 21 37 16 0 73 -75 96 -125 27 -58 44 -153 44 -242 0
-34 4 -64 9 -67 19 -12 46 97 45 179 -2 97 -51 491 -65 517 -13 24 -16 24 -85
-18z"/>
<path d="M4611 5789 c-7 -46 -15 -101 -18 -121 -7 -44 1 -47 48 -15 30 21 34
28 32 63 -1 21 -13 66 -26 98 l-24 59 -12 -84z"/>
<path d="M4770 5201 c-15 -28 -12 -128 5 -185 26 -85 3 -119 -109 -161 -153
-57 -189 -87 -288 -233 -136 -199 -261 -262 -683 -347 -380 -76 -512 -126
-630 -237 -55 -51 -145 -176 -145 -201 0 -4 35 22 77 58 204 171 430 247 787
265 258 14 412 52 610 151 207 103 278 172 370 356 35 70 78 156 97 191 26 51
33 78 37 142 4 66 1 86 -18 124 -20 43 -71 96 -90 96 -5 0 -14 -9 -20 -19z"/>
<path d="M5004 4897 c-39 -67 -75 -133 -79 -147 -4 -14 -21 -44 -37 -67 -77
-113 -28 -175 155 -194 49 -5 92 -8 93 -6 2 2 -3 25 -11 52 -30 99 -17 163 58
285 56 88 63 117 43 164 l-15 36 -68 0 -68 0 -71 -123z"/>
</g>
</svg>
